<svg width="24" height="24" viewBox="0 0 24 24" fill="none" xmlns="http://www.w3.org/2000/svg">
<rect width="24" height="24" rx="12" fill="white" fill-opacity="0.1"/>
<path d="M8.99504 8.49533C8.89557 8.49536 8.79837 8.52505 8.71587 8.58061C8.63336 8.63616 8.5693 8.71506 8.53187 8.80722C8.49444 8.89938 8.48535 9.0006 8.50575 9.09795C8.52615 9.1953 8.57512 9.28436 8.6464 9.35373L11.2929 12.0002L8.6464 14.6467C8.59842 14.6928 8.56011 14.748 8.53371 14.809C8.50732 14.8701 8.49338 14.9358 8.4927 15.0023C8.49202 15.0688 8.50463 15.1348 8.52977 15.1964C8.55492 15.258 8.5921 15.314 8.63914 15.361C8.68618 15.408 8.74213 15.4452 8.80372 15.4704C8.86531 15.4955 8.93129 15.5081 8.99781 15.5074C9.06433 15.5068 9.13005 15.4928 9.19111 15.4664C9.25218 15.44 9.30736 15.4017 9.35344 15.3537L11.9999 12.7072L14.6464 15.3537C14.6925 15.4017 14.7477 15.44 14.8087 15.4664C14.8698 15.4928 14.9355 15.5068 15.002 15.5074C15.0685 15.5081 15.1345 15.4955 15.1961 15.4704C15.2577 15.4452 15.3137 15.408 15.3607 15.361C15.4077 15.314 15.4449 15.258 15.4701 15.1964C15.4952 15.1348 15.5078 15.0688 15.5071 15.0023C15.5065 14.9358 15.4925 14.8701 15.4661 14.809C15.4397 14.748 15.4014 14.6928 15.3534 14.6467L12.707 12.0002L15.3534 9.35373C15.4257 9.2835 15.475 9.19308 15.495 9.09432C15.515 8.99556 15.5047 8.89307 15.4654 8.80028C15.4261 8.70748 15.3597 8.62872 15.2749 8.5743C15.1901 8.51989 15.0909 8.49236 14.9902 8.49533C14.8603 8.49921 14.737 8.55349 14.6464 8.6467L11.9999 11.2932L9.35344 8.6467C9.30684 8.5988 9.25112 8.56073 9.18956 8.53473C9.128 8.50874 9.06186 8.49534 8.99504 8.49533Z" fill="#B6B6B6"/>
</svg>
