<svg width="20" height="20" viewBox="0 0 20 20" fill="none" xmlns="http://www.w3.org/2000/svg">
<path d="M18.3337 10.0003C18.3337 14.6027 14.6027 18.3337 10.0003 18.3337M18.3337 10.0003C18.3337 5.39795 14.6027 1.66699 10.0003 1.66699M18.3337 10.0003H1.66699M10.0003 18.3337C5.39795 18.3337 1.66699 14.6027 1.66699 10.0003M10.0003 18.3337C12.0847 16.0517 13.2693 13.0903 13.3337 10.0003C13.2693 6.91035 12.0847 3.94895 10.0003 1.66699M10.0003 18.3337C7.91593 16.0517 6.73136 13.0903 6.66699 10.0003C6.73136 6.91035 7.91593 3.94895 10.0003 1.66699M1.66699 10.0003C1.66699 5.39795 5.39795 1.66699 10.0003 1.66699" stroke="#69696A" stroke-width="1.5" stroke-linecap="round" stroke-linejoin="round"/>
</svg>
