<svg width="19" height="24" viewBox="0 0 19 24" fill="none" xmlns="http://www.w3.org/2000/svg">
<path d="M17.3555 21.9918H16.4767C16.4767 16.0652 11.4611 15.1591 9.91789 11.9999C11.4611 8.84082 16.4767 7.91012 16.4767 2.00808H17.3555C17.8485 2.00808 18.2344 1.56735 18.2344 1.00395C18.2344 0.440729 17.8485 0 17.3555 0H1.62297C1.13003 0 0.744141 0.440729 0.744141 1.00395C0.744141 1.56717 1.12988 2.00808 1.62297 2.00808H2.50181C2.50181 7.93461 7.51736 8.84073 9.06061 11.9999C7.51736 15.159 2.50181 16.0897 2.50181 21.9918H1.62297C1.13003 21.9918 0.744141 22.4325 0.744141 22.9959C0.744141 23.5591 1.12988 24 1.62297 24H17.377C17.8699 24 18.2558 23.5593 18.2558 22.9959C18.2343 22.4571 17.8484 21.9918 17.3555 21.9918H17.3555ZM4.23792 2.00808H14.7406C14.7406 7.00399 9.48925 7.98359 9.48925 9.99175C9.48925 7.98367 4.23792 7.00417 4.23792 2.00808ZM4.23792 21.9918C4.23792 16.9958 9.48925 15.9918 9.48925 14.0081C9.48925 15.9917 14.7406 17.0203 14.7406 22.0162L4.23792 21.9918Z" fill="#0057FF"/>
</svg>
