<svg width="32" height="32" viewBox="0 0 32 32" fill="none" xmlns="http://www.w3.org/2000/svg">
<path d="M4.04199 3.3335L14.3933 11.1975L12.7087 6.66683L4.04199 3.3335Z" fill="#E27625"/>
<path d="M2.66699 21.3334L4.66699 27.3334L10.7083 25.3334L7.81966 21.29L2.66699 21.3334Z" fill="#E27625"/>
<path d="M10.2083 13.5833L8.625 16.6667L14.7083 16.8333L14.125 10L10.2083 13.5833Z" fill="#E27625"/>
<path d="M10.709 25.3335L14.063 24.0002L11.0423 21.3335L10.709 25.3335Z" fill="#E27625"/>
<path d="M10.709 25.3333L13.917 27.25L14.063 24L10.709 25.3333Z" fill="#D7CCC8"/>
<path d="M10.7077 25.3335L11.041 21.3335H7.79102L10.7077 25.3335Z" fill="#CC6228"/>
<path d="M14.4584 16.6665L13.9404 19.9025L14.6311 23.4585L14.7858 18.7718L14.4584 16.6665Z" fill="#FB8C00"/>
<path d="M2.70898 7.3335L4.70898 16.0002L10.2623 14.1368L14.0423 10.6668L4.04232 3.3335L2.70898 7.3335Z" fill="#763E1A"/>
<path d="M14.0423 19.5001L8.70899 16.6667L10.2617 14.1367L4.70832 16.0001L2.66699 21.3334H11.0423L14.063 24.0001L14.631 23.4587L14.0423 19.5001Z" fill="#FB8C00"/>
<path d="M11.0423 18.9998L14.0423 19.9998L14.459 16.6665H8.70898L11.0423 18.9998Z" fill="#CC6228"/>
<path d="M14.042 20L11.042 19L13.1253 18L14.042 20Z" fill="#212121"/>
<path d="M19.3523 6.66683L17.667 11.1975L28.019 3.3335L19.3523 6.66683Z" fill="#E27625"/>
<path d="M24.2417 21.29L21.375 25.3334L27.3943 27.3334L29.3943 21.3334L24.2417 21.29Z" fill="#E27625"/>
<path d="M17.8752 10.1665L17.5752 16.8912L23.4359 16.6665L22.0412 13.9998L17.8752 10.1665Z" fill="#E27625"/>
<path d="M21.0192 21.3335L18.0205 24.0002L21.3745 25.3335L21.0192 21.3335Z" fill="#E27625"/>
<path d="M18.0205 24L18.1445 27.25L21.3752 25.3333L18.0205 24Z" fill="#D7CCC8"/>
<path d="M24.2695 21.3335H21.0195L21.3749 25.3335L24.2695 21.3335Z" fill="#CC6228"/>
<path d="M18.2696 26.9648V26.0002H13.7923V26.9648L10.709 25.3335L14.0423 28.0002H18.0196L21.3756 25.3335L18.2696 26.9648Z" fill="#BCAAA4"/>
<path d="M28.0193 3.3335L18.042 10.6668L21.8 14.1368L27.3747 16.0002L29.3527 7.3335L28.0193 3.3335Z" fill="#763E1A"/>
<path d="M27.3757 16.0001L21.8004 14.1367L23.353 16.6667L18.0917 19.7174L17.603 16.6667L17.2764 18.7721L17.431 23.4587L17.4317 23.4541L17.431 23.4587L18.021 24.0001L21.0197 21.3334H29.395L27.3757 16.0001Z" fill="#FB8C00"/>
<path d="M12.709 6.6665L14.0423 10.6665L14.4863 16.8912L14.6203 18.7818L14.631 23.4585H16.0303V23.4285L16.0317 23.4585H17.431L17.4417 18.7818L17.5757 16.8912L18.0423 10.6665L19.3757 6.6665H12.709Z" fill="#FB8C00"/>
<path d="M18.042 24.0002L17.4153 23.3335H14.646L14.042 24.0002L13.792 26.0002H18.2693L18.042 24.0002Z" fill="#212121"/>
<path d="M23.3525 16.6665H17.6025L18.0192 19.9998L21.0192 18.9998L23.3525 16.6665Z" fill="#CC6228"/>
<path d="M18.9582 18L21.0195 19L18.0195 20L18.9582 18Z" fill="#212121"/>
</svg>
