<svg width="20" height="20" viewBox="0 0 20 20" fill="none" xmlns="http://www.w3.org/2000/svg">
<path d="M10 0C4.48603 0 0 4.48604 0 10C0 15.514 4.48603 20 10 20C15.514 20 20 15.514 20 10C20 4.48604 15.514 0 10 0ZM10 1.5C14.7033 1.5 18.5 5.2967 18.5 10C18.5 14.7033 14.7033 18.5 10 18.5C5.29669 18.5 1.5 14.7033 1.5 10C1.5 5.2967 5.29669 1.5 10 1.5ZM5.75 9.25C5.65062 9.24859 5.55194 9.26696 5.45972 9.30402C5.36749 9.34108 5.28355 9.3961 5.21277 9.46588C5.142 9.53566 5.08579 9.61882 5.04743 9.71051C5.00907 9.8022 4.98932 9.90061 4.98932 10C4.98932 10.0994 5.00907 10.1978 5.04743 10.2895C5.08579 10.3812 5.142 10.4643 5.21277 10.5341C5.28355 10.6039 5.36749 10.6589 5.45972 10.696C5.55194 10.733 5.65062 10.7514 5.75 10.75H14.25C14.3494 10.7514 14.4481 10.733 14.5403 10.696C14.6325 10.6589 14.7164 10.6039 14.7872 10.5341C14.858 10.4643 14.9142 10.3812 14.9526 10.2895C14.9909 10.1978 15.0107 10.0994 15.0107 10C15.0107 9.90061 14.9909 9.8022 14.9526 9.71051C14.9142 9.61882 14.858 9.53566 14.7872 9.46588C14.7164 9.3961 14.6325 9.34108 14.5403 9.30402C14.4481 9.26696 14.3494 9.24859 14.25 9.25H5.75Z" fill="#69696A"/>
</svg>
