<svg width="50" height="18" viewBox="0 0 50 18" fill="none" xmlns="http://www.w3.org/2000/svg">
<path d="M19.4011 11.5563C20.8045 11.5563 21.7933 10.8016 21.7933 9.56623C21.7933 8.21753 20.6821 7.86839 19.6381 7.54037C18.6399 7.23865 18.3851 7.02313 18.3851 6.61623C18.3851 6.23908 18.7058 5.95589 19.2519 5.95589C19.9209 5.95589 20.2786 6.30503 20.514 6.80503L21.6067 6.1727C21.164 5.24641 20.3334 4.68994 19.2502 4.68994C18.12 4.68994 17.0838 5.40675 17.0838 6.65158C17.0838 7.90632 18.0636 8.33261 19.0713 8.62313C20.0511 8.90589 20.4937 9.09468 20.4937 9.5852C20.4937 9.95287 20.2205 10.283 19.4386 10.283C18.6196 10.283 18.1575 9.88692 17.9222 9.27356L16.8105 9.92442C17.1683 10.9055 18.0541 11.5563 19.4011 11.5563Z" fill="white"/>
<path d="M24.855 6.57617C24.1653 6.57617 23.6683 6.83091 23.3291 7.26583V6.7085H22.1123V13.3107H23.3274V10.868C23.6666 11.3016 24.1658 11.5576 24.8533 11.5576C26.1153 11.5576 27.1515 10.4727 27.1515 9.06755C27.1515 7.66238 26.117 6.57617 24.855 6.57617ZM24.6291 10.3964C23.8847 10.3964 23.3291 9.8585 23.3291 9.06626C23.3291 8.27402 23.8847 7.73652 24.6291 7.73652C25.3826 7.73652 25.9382 8.27402 25.9382 9.06626C25.9382 9.8585 25.3826 10.3964 24.6291 10.3964Z" fill="white"/>
<path d="M30.1576 6.57571C29.5266 6.57571 29.0369 6.81149 28.7541 7.23606V4.82227H27.5391V11.424H28.7541V8.87744C28.7541 8.05847 29.1968 7.70761 29.7886 7.70761C30.3348 7.70761 30.721 8.03778 30.721 8.67916V11.424H31.9395V8.5283C31.9395 7.27571 31.1559 6.57571 30.1576 6.57571Z" fill="white"/>
<path d="M33.5313 9.56626H37.0822C37.1129 9.40135 37.1288 9.23401 37.1296 9.06626C37.1296 7.68005 36.1404 6.57617 34.7464 6.57617C33.2675 6.57617 32.2598 7.66109 32.2598 9.06626C32.2598 10.4714 33.258 11.5563 34.8404 11.5563C35.7455 11.5563 36.4511 11.1887 36.8938 10.5473L35.9145 9.98134C35.7072 10.2546 35.3305 10.4529 34.8593 10.4529C34.2188 10.4529 33.7007 10.1887 33.5313 9.56626ZM33.5124 8.62315C33.6537 8.01971 34.0964 7.67057 34.7464 7.67057C35.255 7.67057 35.7636 7.94384 35.9145 8.62315H33.5124Z" fill="white"/>
<path d="M38.7219 7.51937V6.70817H37.5068V11.4241H38.7219V9.1698C38.7219 8.17842 39.5228 7.89653 40.1538 7.97196V6.61377C39.5603 6.61377 38.9655 6.87799 38.7219 7.51937Z" fill="white"/>
<path d="M42.721 11.5563C44.1055 11.5563 45.2171 10.4714 45.2171 9.06626C45.2171 7.66109 44.1055 6.57617 42.721 6.57617C41.3365 6.57617 40.2344 7.66109 40.2344 9.06626C40.2344 10.4714 41.3361 11.5563 42.721 11.5563ZM42.721 10.368C42.0051 10.368 41.4495 9.83048 41.4495 9.06626C41.4495 8.30203 42.0051 7.76453 42.721 7.76453C43.446 7.76453 44.002 8.30246 44.002 9.06626C44.002 9.83005 43.4482 10.368 42.721 10.368Z" fill="white"/>
<path d="M48.2195 6.57617C47.5885 6.57617 47.0989 6.81195 46.8157 7.23652V6.7085H45.6006V11.4244H46.8157V8.8779C46.8157 8.05893 47.2588 7.70807 47.8502 7.70807C48.3967 7.70807 48.7829 8.03824 48.7829 8.67962V11.4244H49.9997V8.52876C49.9997 7.27617 49.2178 6.57617 48.2195 6.57617Z" fill="white"/>
<path d="M11.0069 0.628102V3.94707C11.0068 4.03314 10.9846 4.11774 10.9423 4.19271C10.9 4.26768 10.8391 4.33049 10.7655 4.37508L10.7448 4.38715L9.96896 4.83413L5.45258 7.43155L4.90431 7.74663C4.89504 7.75072 4.88622 7.75578 4.87802 7.76172C4.84388 7.78462 4.8159 7.81557 4.79656 7.85184C4.77721 7.88811 4.76709 7.92859 4.76709 7.96969C4.76709 8.0108 4.77721 8.05128 4.79656 8.08755C4.8159 8.12382 4.84388 8.15477 4.87802 8.17767L4.89871 8.18974L5.51724 8.54836L7.62931 9.76387L7.66681 9.78586C7.69988 9.80874 7.72691 9.8393 7.74558 9.87492C7.76425 9.91055 7.77401 9.95016 7.77401 9.99038C7.77401 10.0306 7.76425 10.0702 7.74558 10.1058C7.72691 10.1415 7.69988 10.172 7.66681 10.1949L7.63017 10.2156L3.77112 12.4389L3.74957 12.4514C3.67652 12.4914 3.59452 12.5124 3.51121 12.5121C3.43662 12.5119 3.36302 12.4951 3.29569 12.463L3.27414 12.4518L3.24138 12.4324L1.00345 11.1458L0.2625 10.7195C0.255604 10.716 0.248707 10.7117 0.24138 10.7074C0.169816 10.6637 0.110496 10.6026 0.0689659 10.5298C0.0238621 10.4544 2.99529e-05 10.3681 4.41704e-07 10.2803V6.81689C-0.000112652 6.73202 0.0214934 6.64853 0.0627628 6.57436C0.104032 6.5002 0.163592 6.43783 0.235776 6.39319C0.237431 6.39161 0.239322 6.3903 0.24138 6.38931C0.249527 6.38412 0.258024 6.37952 0.266811 6.37551L0.270259 6.37293L1.00302 5.95138L3.47586 4.52896L6.45603 2.81474L10.6164 0.422498C10.6229 0.417906 10.6298 0.413869 10.6371 0.410429C10.6736 0.390063 10.7147 0.379379 10.7565 0.379395C10.7893 0.379338 10.8219 0.38576 10.8523 0.398293C10.8827 0.410826 10.9104 0.429225 10.9337 0.45244C10.957 0.475654 10.9755 0.50323 10.9881 0.533592C11.0007 0.563954 11.0073 0.596508 11.0073 0.629395L11.0069 0.628102Z" fill="#01ABFF"/>
<path d="M14.4825 7.72011V11.1835C14.4824 11.2694 14.4601 11.3539 14.4178 11.4287C14.3756 11.5036 14.3147 11.5662 14.2411 11.6106L14.22 11.6227L13.479 12.0494L12.5428 12.5882L11.0075 13.4714L8.02645 15.1856L3.86697 17.5779C3.86032 17.5823 3.85341 17.5863 3.84628 17.5899C3.8096 17.6102 3.76835 17.6207 3.72645 17.6205C3.69356 17.6206 3.66098 17.6142 3.63058 17.6016C3.60017 17.5891 3.57254 17.5707 3.54924 17.5475C3.52595 17.5243 3.50745 17.4967 3.49481 17.4663C3.48218 17.436 3.47564 17.4034 3.47559 17.3705V14.0516C3.47551 13.9656 3.4977 13.8811 3.54 13.8062C3.5823 13.7313 3.64327 13.6687 3.71697 13.6244C3.72688 13.618 3.73765 13.6123 3.74757 13.6072L4.51481 13.1654L9.02989 10.568L9.57084 10.2567L9.60576 10.2369L9.6092 10.2348C9.64231 10.2118 9.66936 10.1811 9.68805 10.1454C9.70674 10.1096 9.71651 10.0699 9.71653 10.0296C9.71618 9.9886 9.70592 9.9483 9.68664 9.91212C9.66735 9.87595 9.6396 9.84497 9.60576 9.82183C9.59776 9.81652 9.58941 9.81176 9.58076 9.80761L8.96524 9.45157L6.85317 8.23563L6.81265 8.21192C6.78036 8.18897 6.75403 8.15862 6.73586 8.12342C6.71769 8.08821 6.70821 8.04917 6.70821 8.00955C6.70821 7.96993 6.71769 7.93089 6.73586 7.89568C6.75403 7.86048 6.78036 7.83013 6.81265 7.80718L6.85576 7.78304C6.85777 7.78164 6.85994 7.78048 6.86222 7.77959L10.7122 5.56408L10.7424 5.54684C10.8142 5.50933 10.894 5.48975 10.9749 5.48975C11.0559 5.48975 11.1357 5.50933 11.2075 5.54684L11.2402 5.5658L13.4842 6.85632L14.2252 7.28304C14.2323 7.28658 14.2392 7.29061 14.2458 7.29511C14.3174 7.33853 14.3768 7.39951 14.4183 7.47227C14.463 7.54796 14.4863 7.63435 14.4859 7.72227L14.4825 7.72011Z" fill="#0057FF"/>
</svg>
