<svg width="20" height="20" viewBox="0 0 20 20" fill="none" xmlns="http://www.w3.org/2000/svg">
<path fill-rule="evenodd" clip-rule="evenodd" d="M10 20C15.5228 20 20 15.5228 20 10C20 4.47715 15.5228 0 10 0C4.47715 0 0 4.47715 0 10C0 15.5228 4.47715 20 10 20ZM14.7791 7.7463C14.7791 10.9987 12.3023 14.7504 7.77508 14.7504C6.43677 14.7511 5.12643 14.3672 4 13.6446C4.1952 13.6683 4.39164 13.6804 4.58828 13.6807C5.69709 13.6824 6.77421 13.3109 7.64617 12.626C7.13256 12.6157 6.63498 12.4453 6.22289 12.1385C5.81079 11.8318 5.50473 11.4041 5.34742 10.915C5.71599 10.9864 6.09603 10.9719 6.45813 10.8729C5.90066 10.7606 5.39926 10.4588 5.03916 10.0188C4.67905 9.57866 4.48246 9.02744 4.48281 8.4588V8.42833C4.82499 8.61771 5.20731 8.72295 5.5982 8.73536C5.07753 8.38709 4.709 7.85363 4.56752 7.24341C4.42603 6.63319 4.5222 5.99199 4.83648 5.45012C5.45485 6.21008 6.22601 6.83161 7.09999 7.27442C7.97397 7.71722 8.93125 7.97141 9.90977 8.02052C9.78771 7.49267 9.84295 6.93932 10.0669 6.44602C10.2909 5.95272 10.6711 5.54694 11.1489 5.29141C11.6266 5.03589 12.1752 4.94486 12.7098 5.03239C13.2445 5.11992 13.7354 5.38115 14.1067 5.77567C14.6578 5.66667 15.1863 5.46464 15.6695 5.17825C15.4853 5.7481 15.1006 6.23182 14.587 6.53973C15.0748 6.48306 15.5513 6.35267 16 6.15302C15.6697 6.64749 15.2539 7.0791 14.7721 7.42755C14.7768 7.53302 14.7791 7.64083 14.7791 7.7463Z" fill="#69696A"/>
</svg>
