<svg width="20" height="20" viewBox="0 0 20 20" fill="none" xmlns="http://www.w3.org/2000/svg">
<path fill-rule="evenodd" clip-rule="evenodd" d="M20 10C20 15.5228 15.5228 20 10 20C4.47715 20 0 15.5228 0 10C0 4.47715 4.47715 0 10 0C15.5228 0 20 4.47715 20 10ZM15.2047 8.53799C16.0117 8.53799 16.6667 9.19296 16.6667 9.99998C16.6667 10.5965 16.3041 11.1111 15.8246 11.345C15.848 11.4854 15.8597 11.6257 15.8597 11.7778C15.8597 14.0234 13.2515 15.8362 10.0234 15.8362C6.79533 15.8362 4.18714 14.0234 4.18714 11.7778C4.18714 11.6257 4.19884 11.4737 4.22223 11.3333C3.70761 11.0994 3.35673 10.5965 3.35673 9.99998C3.35673 9.19296 4.0117 8.53799 4.81872 8.53799C5.20468 8.53799 5.56726 8.70173 5.82457 8.94735C6.83041 8.21051 8.22223 7.75437 9.77778 7.70758L10.5146 4.2222C10.538 4.15203 10.5731 4.09355 10.6316 4.05846C10.6901 4.02337 10.7602 4.01168 10.8304 4.02337L13.2515 4.53799C13.4152 4.18711 13.7661 3.9532 14.1754 3.9532C14.7485 3.9532 15.2164 4.42103 15.2164 4.99413C15.2164 5.56723 14.7485 6.03507 14.1754 6.03507C13.614 6.03507 13.1579 5.59062 13.1345 5.04092L10.9708 4.58478L10.3041 7.70758C11.8246 7.76606 13.2047 8.2339 14.1988 8.94735C14.4561 8.69004 14.807 8.53799 15.2047 8.53799ZM7.70761 9.99998C7.13451 9.99998 6.66667 10.4678 6.66667 11.0409C6.66667 11.614 7.13451 12.0819 7.70761 12.0819C8.28071 12.0819 8.74854 11.614 8.74854 11.0409C8.74854 10.4678 8.28071 9.99998 7.70761 9.99998ZM10.0117 14.5497C10.4094 14.5497 11.7661 14.5029 12.4795 13.7895C12.5848 13.6842 12.5848 13.5204 12.5029 13.4035C12.3977 13.2982 12.2222 13.2982 12.117 13.4035C11.6608 13.8479 10.7135 14.0117 10.0234 14.0117C9.33334 14.0117 8.37427 13.8479 7.92983 13.4035C7.82457 13.2982 7.64913 13.2982 7.54386 13.4035C7.4386 13.5088 7.4386 13.6842 7.54386 13.7895C8.24562 14.4912 9.61404 14.5497 10.0117 14.5497ZM11.2515 11.0409C11.2515 11.614 11.7193 12.0819 12.2924 12.0819C12.8655 12.0819 13.3333 11.614 13.3333 11.0409C13.3333 10.4678 12.8655 9.99998 12.2924 9.99998C11.7193 9.99998 11.2515 10.4678 11.2515 11.0409Z" fill="#69696A"/>
</svg>
