<svg width="20" height="20" viewBox="0 0 20 20" fill="none" xmlns="http://www.w3.org/2000/svg">
<path fill-rule="evenodd" clip-rule="evenodd" d="M10 20C15.5228 20 20 15.5228 20 10C20 4.47715 15.5228 0 10 0C4.47715 0 0 4.47715 0 10C0 15.5228 4.47715 20 10 20ZM11.5856 6.00128C11.6559 6.00638 13.2986 6.14802 14.337 6.98362C14.9005 7.50332 16 10.4748 16 13.0437C16 13.0896 15.9878 13.1334 15.9654 13.1732C15.2072 14.506 13.1376 14.8545 12.6658 14.8698H12.6576C12.574 14.8698 12.4956 14.8301 12.4467 14.7628L11.9698 14.1066C13.2568 13.7744 13.9141 13.2098 13.9518 13.1762C14.0598 13.0814 14.07 12.9174 13.9752 12.8094C13.8794 12.7003 13.7154 12.6912 13.6073 12.7849L13.6069 12.7853C13.5789 12.8088 12.3686 13.8264 10 13.8264C7.61957 13.8264 6.40897 12.7992 6.39368 12.7849C6.28567 12.6901 6.12058 12.7003 6.02582 12.8083C5.93003 12.9164 5.94022 13.0814 6.04823 13.1762C6.08594 13.2098 6.74321 13.7744 8.03023 14.1066L7.55333 14.7628C7.50442 14.8301 7.42595 14.8698 7.34239 14.8698H7.33424C6.86243 14.8545 4.7928 14.506 4.03465 13.1732C4.01223 13.1334 4 13.0896 4 13.0437C4 10.4748 5.09952 7.50332 5.64878 6.99483C6.70143 6.14802 8.34409 6.00638 8.4144 6.00128C8.52446 5.99007 8.62738 6.05325 8.67323 6.15414L8.67363 6.15506C8.67859 6.16657 8.71323 6.24696 8.7517 6.37221C8.06488 6.48736 7.22113 6.72173 6.45788 7.19456C6.3356 7.27098 6.29789 7.43097 6.37432 7.55427C6.44973 7.67655 6.61073 7.71426 6.73302 7.63783C8.0445 6.82363 9.6841 6.78287 10 6.78287C10.3159 6.78287 11.9545 6.82363 13.267 7.63783C13.3098 7.66433 13.3577 7.67757 13.4046 7.67757C13.4922 7.67757 13.5768 7.63376 13.6267 7.55325C13.7021 7.43097 13.6644 7.26997 13.5421 7.19456C12.7789 6.72071 11.9351 6.48736 11.2483 6.37119C11.288 6.24279 11.3237 6.16025 11.3278 6.15414C11.3726 6.05325 11.4766 5.99211 11.5856 6.00128ZM7.3913 10.9568C7.3913 11.5336 7.79993 12.0003 8.30435 12.0003C8.80876 12.0003 9.21739 11.5336 9.21739 10.9568C9.21739 10.38 8.80876 9.91331 8.30435 9.91331C7.79993 9.91331 7.3913 10.38 7.3913 10.9568ZM10.7826 10.9568C10.7826 11.5336 11.1912 12.0003 11.6957 12.0003C12.2001 12.0003 12.6087 11.5336 12.6087 10.9568C12.6087 10.38 12.2001 9.91331 11.6957 9.91331C11.1912 9.91331 10.7826 10.38 10.7826 10.9568Z" fill="#69696A"/>
</svg>
