<svg width="648" height="262" viewBox="0 0 648 262" fill="none" xmlns="http://www.w3.org/2000/svg">
<mask id="mask0_220_181" style="mask-type:alpha" maskUnits="userSpaceOnUse" x="36" y="35" width="192" height="192">
<rect x="36" y="35" width="192" height="192" fill="#D9D9D9"/>
</mask>
<g mask="url(#mask0_220_181)">
<path d="M173.124 37.7718V74.7303C173.124 76.7488 172.049 78.515 170.443 79.495L170.213 79.6303L161.594 84.6071L111.497 113.532L105.416 117.042C105.416 117.042 105.401 117.05 105.397 117.057C105.295 117.101 105.196 117.159 105.109 117.225C104.37 117.726 103.88 118.574 103.88 119.54C103.88 120.505 104.37 121.354 105.109 121.855C105.185 121.906 105.255 121.95 105.339 121.99L112.228 125.968L135.675 139.506C135.675 139.506 135.682 139.506 135.69 139.513L136.107 139.758L136.114 139.765C136.834 140.259 137.302 141.096 137.302 142.04C137.302 142.983 136.834 143.82 136.107 144.321L135.701 144.552L92.8402 169.297L92.6025 169.432C91.82 169.864 90.9131 170.109 89.9551 170.109C89.0921 170.109 88.2693 169.908 87.5453 169.564L87.3076 169.436L86.9419 169.224L62.1311 154.897L53.9107 150.147C53.834 150.106 53.7572 150.062 53.6804 150.011C52.8832 149.529 52.214 148.848 51.7533 148.037C51.2706 147.221 51 146.27 51 145.254V106.686C51 104.693 52.0458 102.946 53.6146 101.969C53.6328 101.951 53.6584 101.936 53.6804 101.925C53.7718 101.867 53.8596 101.816 53.9583 101.772C53.9729 101.764 53.9839 101.757 53.9985 101.746L62.1347 97.0473L89.5675 81.21L122.632 62.1183L168.79 35.4754C168.867 35.4242 168.937 35.3803 169.021 35.3401C169.412 35.1207 169.869 35 170.344 35C171.88 35 173.127 36.2469 173.127 37.7828L173.124 37.7718Z" fill="#01ABFF"/>
<path d="M211.687 116.742V155.31C211.687 157.328 210.612 159.095 209.007 160.067C208.93 160.118 208.853 160.162 208.776 160.203L200.556 164.953L190.156 170.957L173.123 180.79L140.059 199.882L93.9077 226.525C93.8309 226.576 93.7614 226.62 93.6773 226.66C93.286 226.879 92.8289 227 92.3462 227C90.8104 227 89.5635 225.753 89.5635 224.217V187.251C89.5635 185.233 90.6385 183.467 92.2438 182.494C92.3536 182.425 92.4706 182.359 92.5839 182.3L101.093 177.382L151.19 148.457L157.195 144.994C157.195 144.994 157.202 144.994 157.209 144.987L157.593 144.768C157.593 144.768 157.619 144.749 157.633 144.742C158.354 144.234 158.822 143.404 158.822 142.46C158.822 141.517 158.332 140.646 157.593 140.145C157.502 140.087 157.414 140.028 157.315 139.985L150.455 136.024L127.008 122.487C127.008 122.487 127.001 122.487 126.994 122.48L126.544 122.217L126.537 122.209C125.831 121.716 125.374 120.885 125.374 119.953C125.374 119.021 125.824 118.205 126.526 117.704C126.526 117.697 126.533 117.697 126.54 117.697L127.008 117.426C127.027 117.408 127.052 117.401 127.078 117.386L169.796 92.7178L170.128 92.5239C170.9 92.1144 171.789 91.8804 172.717 91.8804C173.646 91.8804 174.524 92.1071 175.288 92.5093L175.654 92.7214L200.549 107.092L208.769 111.842C208.846 111.883 208.923 111.927 208.999 111.978C209.797 112.46 210.466 113.141 210.926 113.952C211.409 114.768 211.68 115.719 211.68 116.735L211.687 116.742Z" fill="#0057FF"/>
</g>
<mask id="mask1_220_181" style="mask-type:alpha" maskUnits="userSpaceOnUse" x="228" y="83" width="384" height="96">
<rect x="228" y="83" width="384" height="96" fill="#D9D9D9"/>
</mask>
<g mask="url(#mask1_220_181)">
<path d="M268.791 159.464C284.391 159.464 295.384 151.061 295.384 137.302C295.384 122.282 283.03 118.396 271.409 114.72C260.311 111.359 257.484 108.943 257.484 104.427C257.484 100.225 261.044 97.0744 267.116 97.0744C274.55 97.0744 278.528 100.961 281.146 106.527L293.29 99.4902C288.37 89.1969 279.156 83 267.116 83C254.553 83 243.036 90.9825 243.036 104.847C243.036 118.816 253.925 123.543 265.127 126.799C276.015 129.95 280.936 132.05 280.936 137.512C280.936 141.608 277.9 145.284 269.21 145.284C260.102 145.284 254.972 140.873 252.354 134.046L240 141.293C243.978 152.217 253.82 159.464 268.791 159.464Z" fill="white"/>
<path d="M329.411 104.007C321.769 104.007 316.22 106.842 312.451 111.674V105.477H298.945V179H312.451V151.797C316.22 156.628 321.769 159.464 329.411 159.464C343.441 159.464 354.957 147.385 354.957 131.735C354.957 116.085 343.441 104.007 329.411 104.007ZM326.899 146.545C318.628 146.545 312.451 140.558 312.451 131.735C312.451 122.912 318.628 116.926 326.899 116.926C335.274 116.926 341.451 122.912 341.451 131.735C341.451 140.558 335.274 146.545 326.899 146.545Z" fill="white"/>
<path d="M388.353 104.007C381.338 104.007 375.894 106.632 372.753 111.359V84.4705H359.247V157.993H372.753V129.635C372.753 120.497 377.674 116.611 384.27 116.611C390.342 116.611 394.635 120.287 394.635 127.429V157.993H408.14V125.748C408.14 111.779 399.451 104.007 388.353 104.007Z" fill="white"/>
<path d="M425.85 137.302H465.32C465.634 135.516 465.844 133.731 465.844 131.735C465.844 116.295 454.851 104.007 439.355 104.007C422.918 104.007 411.716 116.085 411.716 131.735C411.716 147.385 422.813 159.464 440.402 159.464C450.453 159.464 458.306 155.368 463.226 148.225L452.338 141.923C450.035 144.969 445.847 147.175 440.612 147.175C433.493 147.175 427.734 144.234 425.85 137.302ZM425.64 126.799C427.211 120.077 432.131 116.19 439.355 116.19C445.009 116.19 450.663 119.236 452.338 126.799H425.64Z" fill="white"/>
<path d="M483.543 114.51V105.477H470.037V157.993H483.543V132.891C483.543 121.862 492.442 118.711 499.457 119.551V104.427C492.861 104.427 486.265 107.368 483.543 114.51Z" fill="white"/>
<path d="M525.096 159.464C540.486 159.464 552.84 147.385 552.84 131.735C552.84 116.085 540.486 104.007 525.096 104.007C509.706 104.007 497.456 116.085 497.456 131.735C497.456 147.385 509.706 159.464 525.096 159.464ZM525.096 146.23C517.139 146.23 510.962 140.243 510.962 131.735C510.962 123.228 517.139 117.241 525.096 117.241C533.158 117.241 539.335 123.228 539.335 131.735C539.335 140.243 533.158 146.23 525.096 146.23Z" fill="white"/>
<path d="M586.212 104.007C579.198 104.007 573.754 106.632 570.613 111.359V105.477H557.107V157.993H570.613V129.635C570.613 120.497 575.533 116.611 582.129 116.611C588.202 116.611 592.494 120.287 592.494 127.429V157.993H606V125.748C606 111.779 597.31 104.007 586.212 104.007Z" fill="white"/>
</g>
</svg>
