<svg width="192" height="192" viewBox="0 0 192 192" fill="none" xmlns="http://www.w3.org/2000/svg">
<mask id="mask0_220_173" style="mask-type:alpha" maskUnits="userSpaceOnUse" x="0" y="0" width="192" height="192">
<rect width="192" height="192" fill="#D9D9D9"/>
</mask>
<g mask="url(#mask0_220_173)">
<path d="M137.124 2.7718V39.7303C137.124 41.7488 136.049 43.515 134.443 44.495L134.213 44.6303L125.594 49.6071L75.4968 78.5318L69.4157 82.0423C69.4157 82.0423 69.4011 82.0496 69.3974 82.0569C69.295 82.1008 69.1963 82.1593 69.1085 82.2251C68.3699 82.7261 67.8799 83.5744 67.8799 84.5398C67.8799 85.5052 68.3699 86.3535 69.1085 86.8545C69.1853 86.9057 69.2548 86.9496 69.3389 86.9898L76.2282 90.9683L99.6751 104.506C99.6751 104.506 99.6824 104.506 99.6897 104.513L100.107 104.758L100.114 104.765C100.834 105.259 101.302 106.096 101.302 107.04C101.302 107.983 100.834 108.82 100.107 109.321L99.7007 109.552L56.8402 134.297L56.6025 134.432C55.82 134.864 54.9131 135.109 53.9551 135.109C53.0921 135.109 52.2693 134.908 51.5453 134.564L51.3076 134.436L50.9419 134.224L26.1311 119.897L17.9107 115.147C17.834 115.106 17.7572 115.062 17.6804 115.011C16.8832 114.529 16.214 113.848 15.7533 113.037C15.2706 112.221 15 111.27 15 110.254V71.6864C15 69.6935 16.0458 67.9456 17.6146 66.9692C17.6328 66.951 17.6584 66.9363 17.6804 66.9254C17.7718 66.8669 17.8596 66.8157 17.9583 66.7718C17.9729 66.7645 17.9839 66.7571 17.9985 66.7462L26.1347 62.0473L53.5675 46.21L86.6316 27.1183L132.79 0.475381C132.867 0.424187 132.937 0.380308 133.021 0.340084C133.412 0.12068 133.869 0 134.344 0C135.88 0 137.127 1.24695 137.127 2.78277L137.124 2.7718Z" fill="#01ABFF"/>
<path d="M175.687 81.7424V120.31C175.687 122.328 174.612 124.095 173.007 125.067C172.93 125.118 172.853 125.162 172.776 125.203L164.556 129.953L154.156 135.957L137.123 145.79L104.059 164.882L57.9077 191.525C57.8309 191.576 57.7614 191.62 57.6773 191.66C57.286 191.879 56.8289 192 56.3462 192C54.8104 192 53.5635 190.753 53.5635 189.217V152.251C53.5635 150.233 54.6385 148.467 56.2438 147.494C56.3536 147.425 56.4706 147.359 56.5839 147.3L65.0931 142.382L115.19 113.457L121.195 109.994C121.195 109.994 121.202 109.994 121.209 109.987L121.593 109.768C121.593 109.768 121.619 109.749 121.633 109.742C122.354 109.234 122.822 108.404 122.822 107.46C122.822 106.517 122.332 105.646 121.593 105.145C121.502 105.087 121.414 105.028 121.315 104.985L114.455 101.024L91.0083 87.4871C91.0083 87.4871 91.001 87.4871 90.9937 87.4798L90.5439 87.2165L90.5366 87.2092C89.8309 86.7156 89.3738 85.8855 89.3738 84.953C89.3738 84.0206 89.8236 83.2051 90.5256 82.7042C90.5256 82.6968 90.5329 82.6968 90.5403 82.6968L91.0083 82.4262C91.0266 82.408 91.0522 82.4006 91.0778 82.386L133.796 57.7178L134.128 57.5239C134.9 57.1144 135.789 56.8804 136.717 56.8804C137.646 56.8804 138.524 57.1071 139.288 57.5093L139.654 57.7214L164.549 72.0923L172.769 76.8424C172.846 76.8826 172.923 76.9265 172.999 76.9777C173.797 77.4604 174.466 78.1406 174.926 78.9524C175.409 79.7678 175.68 80.7186 175.68 81.7351L175.687 81.7424Z" fill="#0057FF"/>
</g>
</svg>
