<svg width="100" height="42" viewBox="0 0 100 42" fill="none" xmlns="http://www.w3.org/2000/svg">
<path d="M6.93016 29.7523C6.92785 29.7223 6.92785 29.6922 6.92785 29.6622V25.1684C6.92785 24.785 7.23729 24.4756 7.62063 24.4756H12.1145V17.5454H2.30928C1.03456 17.5454 0 18.58 0 19.8547V39.4697C0 40.7445 1.03456 41.779 2.30928 41.779H12.1168V34.9389H7.62294C7.2396 34.9389 6.93016 34.6295 6.93016 34.2461V29.7523Z" fill="#01ABFF"/>
<path d="M34.6281 12.2474C34.6304 12.2775 34.6304 12.3075 34.6304 12.3375V16.8314C34.6304 17.2147 34.3209 17.5242 33.9376 17.5242H29.4437V24.4543H39.2489C40.5237 24.4543 41.5582 23.4198 41.5582 22.145V2.52999C41.5582 1.25526 40.5237 0.220703 39.2489 0.220703H29.4414V7.0608H33.9353C34.3186 7.0608 34.6281 7.37024 34.6281 7.75358V12.2474Z" fill="#01ABFF"/>
<path d="M24.2613 12.3332C24.2613 10.0684 25.7147 8.14146 27.7439 7.42896C28.0504 7.32023 28.3685 7.24389 28.6982 7.19531V0.220703H19.6177C18.3361 0.220703 17.2959 1.25706 17.2959 2.53401V17.5288H12.8613V24.4688H13.8133L16.5994 24.4711C16.9848 24.4711 17.2959 24.7811 17.2959 25.1651V29.6668C17.2959 31.9315 15.8425 33.8585 13.8133 34.571C13.5091 34.6774 13.1887 34.7537 12.8613 34.8023V41.7792H21.9395C23.2211 41.7792 24.2613 40.7429 24.2613 39.4659V24.4711H28.6982V17.5312H27.7439L25.0994 17.5288C24.6374 17.5288 24.2613 17.1541 24.2613 16.6937V12.3332Z" fill="#0057FF"/>
<mask id="mask0_346_3037" style="mask-type:alpha" maskUnits="userSpaceOnUse" x="48" y="10" width="52" height="32">
<rect x="48.0518" y="10.6104" width="51.9481" height="31.1689" fill="white"/>
</mask>
<g mask="url(#mask0_346_3037)">
<path d="M60.635 15.9488V10.6458C53.7816 10.2182 50.5058 13.6822 50.5058 19.5839V19.7977H47.4023V25.1006H50.5058V41.1805H56.0661V25.1006H60.635V19.7977H56.0661V19.5839C56.0661 16.6758 57.7471 15.735 60.635 15.9488Z" fill="white"/>
<path d="M73.0109 19.199C70.123 19.199 67.8817 20.2681 66.5886 22.1926V19.7977H61.0283V41.1805H66.5886V29.6338C66.5886 25.9132 68.6144 24.3309 71.3299 24.3309C73.8299 24.3309 75.5971 25.8276 75.5971 28.7357V41.1805H81.1574V28.0515C81.1574 22.3636 77.5799 19.199 73.0109 19.199Z" fill="white"/>
<path d="M88.8792 25.8704C88.8792 24.7157 89.9999 24.117 91.3792 24.117C92.974 24.117 94.1809 24.9296 94.8275 26.2981L99.5688 23.7321C97.8878 20.7813 94.8706 19.199 91.3792 19.199C86.9396 19.199 83.1896 21.6366 83.1896 25.9987C83.1896 33.5255 94.3102 31.8148 94.3102 34.9367C94.3102 36.1769 93.1033 36.7757 91.3361 36.7757C89.181 36.7757 87.7155 35.7493 87.112 33.9959L82.2845 36.6901C83.8362 39.9831 87.0258 41.7792 91.3361 41.7792C95.9481 41.7792 99.9998 39.5554 99.9998 34.9367C99.9998 27.0679 88.8792 29.0351 88.8792 25.8704Z" fill="white"/>
</g>
</svg>
